<svg version="1.1" xmlns="http://www.w3.org/2000/svg" viewBox="0 0 250 250"><desc>Created with Snap</desc><defs></defs><g transform="matrix(0.0456,0,0,0.0456,14.1082,131.4221)"><g transform="matrix(28.1688,0,0,28.1688,2186.6561,-1547.7815)"><g><path d="M78.4,66.5c-5.5,4.8-9.9,15.2-9.9,15.2s-6.9-11.4-12.9-15.3c-9.5-6.1-13.6-6.2-13.6-6.2V65c0,0,7.8,1.2,11.7,4.6   c8.2,7.1,14.8,18.5,14.8,18.5S74.4,75,80.1,70.5C88.1,64.3,95,65,95,65v-4.8C95,60.1,85.1,60.7,78.4,66.5z" fill="#ffd348" style=""></path><path d="M42,80c-6.4-3.6-17.8-4.3-17.8-4.3s8.7-10.1,10.5-17C37.5,47.9,36.2,44,36.2,44l-4.6,1.6c0,0,1.3,7.7-0.6,12.4   c-4.1,9.9-13,19.8-13,19.8s14.6,1.3,20.7,5.1c8.6,5.4,10.2,12,10.2,12l4.6-1.6C53.5,93.4,49.7,84.4,42,80z" fill="#ffd348" style=""></path><path d="M35.3,36.8c11.3-0.9,14.6-3.4,14.6-3.4l-3-3.8c0,0-6.9,3.7-12.1,3.4c-10.9-0.6-23.3-5.6-23.3-5.6s3.5,14,1.8,20.9   C10.9,58.2,5,61.8,5,61.8l3,3.8c0,0,7.5-6.5,9.1-15.1c1.3-7.1-1.7-18-1.7-18S28,37.4,35.3,36.8z" fill="#ffd348" style=""></path><path d="M37.4,17.8c7.3-1.1,16.7-7.4,16.7-7.4s-0.6,13.2,2.4,19.8c4.6,10.2,8,12.5,8,12.5l2.7-4c0,0-5.9-5.2-7.3-10.2   C56.9,18.2,57.7,5,57.7,5s-12.3,7.8-19.5,8.5c-10.2,1-15.6-3.3-15.6-3.3l-2.7,4.1C19.9,14.2,28.6,19.1,37.4,17.8z" fill="#ffd348" style=""></path><path d="M65,60.5c0,0,3.1-7.2,7.4-10.1c9-6.1,21.9-9.7,21.9-9.7s-11.5-8.9-14.5-15.4c-4.2-9.1-1.9-15.6-1.9-15.6l-4.8-1.2   c0,0-1.9,9.6,2.2,17.4c3.4,6.4,12.5,13.2,12.5,13.2S75,42.9,69.6,47.8c-8.3,7.6-9.4,11.5-9.4,11.5L65,60.5z" fill="#ffd348" style=""></path></g><desc>Created with Snap</desc><defs></defs></g><g><g transform="matrix(0.5,0,0,-0.5,0,0)"><path d="M463 586L227 600L227 555Q297 470 353 380Q410 291 449 192Q489 93 510 -17Q532 -127 532 -254Q532 -382 512 -491Q493 -599 457 -678Q422 -756 371 -800Q321 -844 260 -844Q206 -844 170 -818Q134 -791 112 -748Q91 -704 81 -649Q72 -594 72 -537L72 565Q69 568 65 572Q62 576 59 580Q35 604 15 624Q-4 645 -4 670Q-4 685 7 700Q18 716 43 719Q48 719 55 720Q62 721 72 721L72 1303Q72 1325 68 1338Q65 1351 61 1358Q58 1366 54 1370Q51 1375 51 1380Q51 1386 57 1390Q63 1394 73 1397Q83 1400 94 1401Q106 1403 117 1403Q168 1403 197 1376Q227 1350 227 1313L227 733Q263 736 299 738Q335 741 369 743Q403 746 431 747Q460 748 481 748Q515 748 540 735Q565 722 565 690Q565 679 562 658Q560 637 555 615Q551 593 543 577Q536 561 526 561Q521 561 518 564Q516 568 510 572Q505 576 494 580Q484 584 463 586ZM377 -254Q377 -184 367 -110Q358 -35 339 41Q320 118 292 193Q264 269 227 340L227 -537Q227 -561 229 -589Q231 -617 236 -640Q242 -663 251 -679Q261 -694 276 -694Q298 -694 317 -662Q336 -630 349 -572Q362 -513 369 -433Q377 -352 377 -254ZM776 1190L776 606Q787 627 797 662Q808 698 817 741Q827 784 835 831Q843 878 849 923Q855 968 858 1007Q862 1047 862 1075Q862 1177 847 1224Q832 1272 807 1272Q799 1272 793 1264Q787 1256 783 1243Q779 1231 777 1216Q776 1202 776 1190ZM1067 297Q1073 327 1085 340Q1098 354 1112 355Q1127 357 1142 348Q1157 340 1168 326Q1179 312 1184 294Q1190 277 1186 260Q1172 219 1146 164Q1120 109 1080 60Q1040 11 986 -23Q932 -57 862 -57Q803 -57 758 -38Q713 -18 682 17Q652 53 636 102Q621 152 621 213L621 1145Q621 1202 635 1250Q650 1299 675 1333Q701 1368 735 1387Q769 1407 807 1407Q852 1407 883 1390Q914 1374 934 1347Q954 1320 965 1285Q977 1250 982 1213Q987 1177 988 1141Q989 1106 989 1077Q989 1002 975 919Q961 837 939 757Q918 677 892 603Q867 530 843 473Q820 416 801 380Q783 344 776 338L776 219Q776 157 802 117Q828 78 885 78Q920 78 950 99Q981 121 1004 153Q1028 186 1044 224Q1060 263 1067 297ZM1651 78Q1682 78 1704 100Q1727 122 1743 155Q1760 188 1770 226Q1781 265 1788 299Q1795 331 1808 345Q1822 360 1838 360Q1850 360 1862 352Q1875 345 1885 333Q1896 321 1902 306Q1909 291 1909 276Q1909 274 1909 271Q1909 268 1907 262Q1894 211 1871 155Q1849 99 1814 52Q1779 5 1729 -26Q1680 -57 1614 -57Q1560 -57 1520 -34Q1480 -11 1457 27Q1426 -8 1382 -33Q1339 -57 1281 -57Q1221 -57 1175 -33Q1130 -9 1099 32Q1068 74 1052 130Q1037 187 1037 252Q1037 380 1078 482Q1119 584 1187 655Q1255 727 1342 765Q1430 803 1524 803Q1566 803 1592 780Q1618 757 1618 717Q1618 691 1612 680Q1607 670 1592 670Q1578 670 1563 672Q1548 674 1532 674Q1474 674 1414 648Q1354 623 1305 570Q1257 518 1226 437Q1195 357 1195 246Q1195 165 1226 121Q1257 78 1311 78Q1353 78 1381 109Q1409 141 1426 184L1426 500Q1426 515 1424 525Q1423 535 1421 542Q1420 549 1419 554Q1418 560 1418 565Q1418 581 1433 590Q1449 600 1471 600Q1522 600 1552 573Q1582 547 1582 510L1582 172Q1582 155 1586 138Q1590 122 1598 108Q1606 95 1619 86Q1633 78 1651 78ZM2376 78Q2407 78 2429 100Q2452 122 2468 155Q2485 188 2495 226Q2506 265 2513 299Q2520 331 2533 345Q2547 360 2563 360Q2575 360 2587 352Q2600 345 2610 333Q2621 321 2627 306Q2634 291 2634 276Q2634 274 2634 271Q2634 268 2632 262Q2619 211 2596 155Q2574 99 2539 52Q2504 5 2454 -26Q2405 -57 2339 -57Q2285 -57 2245 -34Q2205 -11 2182 27Q2151 -8 2107 -33Q2064 -57 2006 -57Q1946 -57 1900 -33Q1855 -9 1824 32Q1793 74 1777 130Q1762 187 1762 252Q1762 380 1803 482Q1844 584 1912 655Q1980 727 2067 765Q2155 803 2249 803Q2291 803 2317 780Q2343 757 2343 717Q2343 691 2337 680Q2332 670 2317 670Q2303 670 2288 672Q2273 674 2257 674Q2199 674 2139 648Q2079 623 2030 570Q1982 518 1951 437Q1920 357 1920 246Q1920 165 1951 121Q1982 78 2036 78Q2078 78 2106 109Q2134 141 2151 184L2151 500Q2151 515 2149 525Q2148 535 2146 542Q2145 549 2144 554Q2143 560 2143 565Q2143 581 2158 590Q2174 600 2196 600Q2247 600 2277 573Q2307 547 2307 510L2307 172Q2307 155 2311 138Q2315 122 2323 108Q2331 95 2344 86Q2358 78 2376 78ZM2638 281Q2630 249 2608 241Q2586 234 2564 243Q2543 252 2528 274Q2514 296 2520 322Q2535 390 2563 472Q2592 555 2620 637Q2605 660 2596 683Q2587 707 2587 733Q2587 759 2606 787Q2626 816 2653 840Q2681 864 2710 879Q2740 895 2761 895Q2798 895 2816 870Q2835 845 2835 803Q2835 780 2827 757Q2820 735 2811 715Q2802 696 2794 682Q2787 668 2786 664Q2822 600 2861 551Q2900 502 2932 454Q2965 406 2986 352Q3007 298 3007 225Q3007 207 3004 188Q3002 169 2997 152Q3033 159 3060 174Q3088 189 3108 208Q3129 228 3142 251Q3156 274 3165 299Q3176 328 3187 341Q3198 354 3212 354Q3225 354 3238 345Q3252 337 3262 324Q3273 311 3279 297Q3286 283 3286 272Q3286 257 3278 236Q3270 215 3256 193Q3243 171 3226 150Q3209 130 3191 115Q3143 76 3078 49Q3013 23 2917 16Q2880 -16 2829 -37Q2779 -57 2716 -57Q2684 -57 2650 -49Q2617 -41 2586 -29Q2556 -16 2531 -1Q2506 14 2491 29Q2453 65 2442 101Q2431 138 2436 167Q2442 196 2458 214Q2474 233 2491 233Q2501 233 2522 224Q2544 216 2572 202Q2600 189 2633 174Q2666 159 2699 145Q2732 132 2763 123Q2795 115 2821 115Q2838 135 2852 168Q2866 201 2866 240Q2866 288 2853 329Q2840 370 2819 405Q2798 440 2771 470Q2745 501 2718 528Q2694 469 2676 411Q2658 354 2638 281ZM3175 33L3175 1262Q3175 1284 3171 1297Q3168 1310 3164 1317Q3161 1325 3157 1329Q3154 1334 3154 1339Q3154 1345 3160 1349Q3166 1353 3176 1356Q3186 1359 3197 1360Q3209 1362 3220 1362Q3271 1362 3300 1335Q3330 1309 3330 1272L3330 600Q3351 643 3375 680Q3400 717 3428 744Q3457 772 3489 787Q3522 803 3560 803Q3611 803 3644 784Q3677 765 3696 735Q3715 705 3722 668Q3730 631 3730 596L3730 172Q3730 165 3731 149Q3732 134 3737 118Q3742 102 3752 90Q3763 78 3783 78Q3814 78 3836 100Q3859 122 3875 155Q3892 188 3902 226Q3913 265 3920 299Q3926 330 3938 344Q3951 358 3965 359Q3980 361 3995 352Q4010 343 4021 328Q4032 314 4037 296Q4043 278 4039 262Q4025 211 4002 155Q3980 99 3945 52Q3910 5 3861 -26Q3812 -57 3746 -57Q3705 -57 3673 -42Q3642 -26 3619 0Q3597 26 3585 61Q3574 96 3574 135L3574 551Q3574 575 3573 596Q3572 617 3567 633Q3563 649 3554 658Q3546 668 3531 668Q3509 668 3477 638Q3445 608 3414 560Q3383 512 3359 451Q3336 391 3330 330L3330 31Q3330 16 3329 0Q3329 -15 3323 -28Q3318 -40 3306 -49Q3295 -57 3273 -57Q3258 -57 3240 -54Q3223 -50 3208 -41Q3194 -31 3184 -14Q3175 4 3175 33Z" fill="#9c1f16" style=""></path></g></g></g></svg>